<?xml version="1.0" encoding="UTF-8" standalone="no"?>
<!DOCTYPE svg PUBLIC "-//W3C//DTD SVG 1.1//EN"
 "http://www.w3.org/Graphics/SVG/1.1/DTD/svg11.dtd">
<!-- Generated by graphviz version 2.49.0 (20210828.1703)
 -->
<!-- Pages: 1 -->
<svg width="116pt" height="92pt"
 viewBox="0.00 0.00 116.00 91.70" xmlns="http://www.w3.org/2000/svg" xmlns:xlink="http://www.w3.org/1999/xlink">
<g id="graph0" class="graph" transform="scale(1 1) rotate(0) translate(4 87.7)">
<polygon fill="white" stroke="transparent" points="-4,4 -4,-87.7 112,-87.7 112,4 -4,4"/>
<!-- &#45;1 -->
<g id="node1" class="node">
<title>&#45;1</title>
<polygon fill="lightgray" stroke="black" points="24,-83.7 0,-83.7 0,-65.7 24,-65.7 24,-83.7"/>
<text text-anchor="middle" x="12" y="-72.5" font-family="Times New Roman,serif" font-size="9.00">&#45;1</text>
</g>
<!-- 0 -->
<g id="node4" class="node">
<title>0</title>
<ellipse fill="lightblue" stroke="black" cx="30" cy="-14.85" rx="14.7" ry="14.7"/>
<text text-anchor="middle" x="30" y="-12.65" font-family="Times New Roman,serif" font-size="9.00">0</text>
</g>
<!-- &#45;1&#45;&gt;0 -->
<g id="edge1" class="edge">
<title>&#45;1&#45;&gt;0</title>
<path fill="none" stroke="red" stroke-width="0.22" d="M14.5,-65.65C16.66,-58.72 19.88,-48.37 22.83,-38.89"/>
<polygon fill="red" stroke="red" stroke-width="0.22" points="26.23,-39.75 25.86,-29.16 19.55,-37.67 26.23,-39.75"/>
</g>
<!-- 1 -->
<g id="node5" class="node">
<title>1</title>
<ellipse fill="lightblue" stroke="black" cx="78" cy="-14.85" rx="14.7" ry="14.7"/>
<text text-anchor="middle" x="78" y="-12.65" font-family="Times New Roman,serif" font-size="9.00">1</text>
</g>
<!-- &#45;1&#45;&gt;1 -->
<g id="edge2" class="edge">
<title>&#45;1&#45;&gt;1</title>
<path fill="none" stroke="red" stroke-width="0.52" d="M21.18,-65.65C31.06,-57 47.03,-42.99 59.53,-32.03"/>
<polygon fill="red" stroke="red" stroke-width="0.52" points="61.93,-34.58 67.15,-25.36 57.32,-29.32 61.93,-34.58"/>
</g>
<!-- &#45;2 -->
<g id="node2" class="node">
<title>&#45;2</title>
<polygon fill="lightgray" stroke="black" points="66,-83.7 42,-83.7 42,-65.7 66,-65.7 66,-83.7"/>
<text text-anchor="middle" x="54" y="-72.5" font-family="Times New Roman,serif" font-size="9.00">&#45;2</text>
</g>
<!-- &#45;2&#45;&gt;0 -->
<g id="edge3" class="edge">
<title>&#45;2&#45;&gt;0</title>
<path fill="none" stroke="green" stroke-width="0.34" d="M50.66,-65.65C47.72,-58.56 43.28,-47.87 39.28,-38.21"/>
<polygon fill="green" stroke="green" stroke-width="0.34" points="42.4,-36.61 35.34,-28.71 35.94,-39.29 42.4,-36.61"/>
</g>
<!-- &#45;2&#45;&gt;1 -->
<g id="edge4" class="edge">
<title>&#45;2&#45;&gt;1</title>
<path fill="none" stroke="red" stroke-width="0.22" d="M57.34,-65.65C60.28,-58.56 64.72,-47.87 68.72,-38.21"/>
<polygon fill="red" stroke="red" stroke-width="0.22" points="72.06,-39.29 72.66,-28.71 65.6,-36.61 72.06,-39.29"/>
</g>
<!-- &#45;3 -->
<g id="node3" class="node">
<title>&#45;3</title>
<polygon fill="lightgray" stroke="black" points="108,-83.7 84,-83.7 84,-65.7 108,-65.7 108,-83.7"/>
<text text-anchor="middle" x="96" y="-72.5" font-family="Times New Roman,serif" font-size="9.00">&#45;3</text>
</g>
<!-- &#45;3&#45;&gt;0 -->
<g id="edge5" class="edge">
<title>&#45;3&#45;&gt;0</title>
<path fill="none" stroke="green" stroke-width="0.43" d="M86.82,-65.65C76.94,-57 60.97,-42.99 48.47,-32.03"/>
<polygon fill="green" stroke="green" stroke-width="0.43" points="50.68,-29.32 40.85,-25.36 46.07,-34.58 50.68,-29.32"/>
</g>
<!-- &#45;3&#45;&gt;1 -->
<g id="edge6" class="edge">
<title>&#45;3&#45;&gt;1</title>
<path fill="none" stroke="red" stroke-width="0.27" d="M93.5,-65.65C91.34,-58.72 88.12,-48.37 85.17,-38.89"/>
<polygon fill="red" stroke="red" stroke-width="0.27" points="88.45,-37.67 82.14,-29.16 81.77,-39.75 88.45,-37.67"/>
</g>
</g>
</svg>
